<?xml version="1.0" encoding="utf-8"?>
<!-- Generator: Adobe Illustrator 16.0.0, SVG Export Plug-In . SVG Version: 6.00 Build 0)  -->
<!DOCTYPE svg PUBLIC "-//W3C//DTD SVG 1.1//EN" "http://www.w3.org/Graphics/SVG/1.1/DTD/svg11.dtd">
<svg version="1.1" xmlns="http://www.w3.org/2000/svg" xmlns:xlink="http://www.w3.org/1999/xlink" x="0px" y="0px" width="1000px"
	 height="1000px" viewBox="0 0 1000 1000" enable-background="new 0 0 1000 1000" xml:space="preserve">
<g id="Layer_1">
	<path fill="#1B322E" d="M988,500.195c0,269.242-218.258,487.5-487.5,487.5c-269.23,0-487.5-218.258-487.5-487.5
		s218.27-487.5,487.5-487.5C769.742,12.695,988,230.954,988,500.195z"/>
	<g>
		<g>
			<path fill="#E7E1E6" d="M-1417.552,228.202v134.571h-19.326V228.814c0-16.296-21.241-15.684-21.241-0.613v134.571h-19.649
				V228.659c0-15.985-21.866-15.049-21.866-0.613v134.728h-19.014V229.271c0-16.931-22.724-16.341-22.724-0.612v180.586
				c0,25.809,19.471,43.03,41.838,43.03V780.43c0,46.572,63.48,46.572,63.48,0V452.275c22.98,0,40.68-20.819,40.68-40.258
				l0.012-183.204C-1395.362,212.673-1417.552,213.287-1417.552,228.202z"/>
			<path fill="#E7E1E6" d="M-1323.493,270.63v307.426h33.861v202.219c0,44.867,63.627,45.549,63.627,0V270.63
				C-1226.003,199.074-1323.493,199.074-1323.493,270.63z"/>
		</g>
	</g>
	<path fill="#1B322E" d="M-1499.781,333.722c0-17.35,14.064-31.414,31.414-31.414l0,0c17.349,0,31.413,14.064,31.413,31.414v450.225
		c0,17.349-14.064,31.413-31.413,31.413l0,0c-17.35,0-31.414-14.064-31.414-31.413V333.722z"/>
	<path fill="#E7E1E6" d="M725.112,748.4c17.35,0,31.414,14.064,31.414,31.414l0,0c0,17.348-14.064,31.412-31.414,31.412H274.888
		c-17.349,0-31.413-14.064-31.413-31.412l0,0c0-17.35,14.064-31.414,31.413-31.414H725.112z"/>
	<g>
		<path fill="#E7E1E6" d="M322.689,395.292c17.349,0,31.413,14.064,31.413,31.414v252.173c0,17.35-14.064,31.414-31.413,31.414l0,0
			c-17.35,0-31.414-14.064-31.414-31.414V426.706C291.275,409.356,305.339,395.292,322.689,395.292L322.689,395.292z"/>
		<path fill="#E7E1E6" d="M440.897,395.292c17.349,0,31.413,14.064,31.413,31.414v252.173c0,17.35-14.064,31.414-31.413,31.414l0,0
			c-17.35,0-31.414-14.064-31.414-31.414V426.706C409.483,409.356,423.547,395.292,440.897,395.292L440.897,395.292z"/>
		<path fill="#E7E1E6" d="M559.104,395.292c17.349,0,31.413,14.064,31.413,31.414v252.173c0,17.35-14.064,31.414-31.413,31.414l0,0
			c-17.35,0-31.414-14.064-31.414-31.414V426.706C527.69,409.356,541.755,395.292,559.104,395.292L559.104,395.292z"/>
		<path fill="#E7E1E6" d="M677.312,395.292c17.349,0,31.413,14.064,31.413,31.414v252.173c0,17.35-14.064,31.414-31.413,31.414l0,0
			c-17.35,0-31.414-14.064-31.414-31.414V426.706C645.898,409.356,659.963,395.292,677.312,395.292L677.312,395.292z"/>
	</g>
	<g>
		<path fill="#E7E1E6" d="M725.112,292.401c17.35,0,31.414,14.063,31.414,31.413l0,0c0,17.349-14.064,31.413-31.414,31.413H274.888
			c-17.349,0-31.413-14.064-31.413-31.413l0,0c0-17.35,14.064-31.414,31.413-31.414L725.112,292.401z"/>
		<g>
			<path fill="#E7E1E6" d="M271.953,299.4c-11,0-12.241-4.561-2.758-10.136l212.417-124.865c9.483-5.575,25-5.575,34.483,0
				l212.418,124.865c9.482,5.575,8.241,10.136-2.759,10.136H271.953z"/>
		</g>
	</g>
</g>
<g id="Layer_2">
</g>
<g id="Layer_3">
</g>
</svg>
